<svg width="23" height="23" viewBox="0 0 23 23" fill="none" xmlns="http://www.w3.org/2000/svg">
<path d="M14.8063 21.5625H4.025C3.62789 21.5625 3.30625 21.2409 3.30625 20.8438C3.30625 20.4466 3.62789 20.125 4.025 20.125H14.8063C15.2034 20.125 15.525 20.4466 15.525 20.8438C15.525 21.2409 15.2034 21.5625 14.8063 21.5625Z" fill="#C2C2C2"/>
<path d="M14.8063 21.7422H4.025C3.52942 21.7422 3.12656 21.339 3.12656 20.8438C3.12656 20.3485 3.52942 19.9453 4.025 19.9453H14.8063C15.3018 19.9453 15.7047 20.3485 15.7047 20.8438C15.7047 21.339 15.3018 21.7422 14.8063 21.7422ZM4.025 20.3047C3.7278 20.3047 3.48594 20.5465 3.48594 20.8438C3.48594 21.141 3.7278 21.3828 4.025 21.3828H14.8063C15.1035 21.3828 15.3453 21.141 15.3453 20.8438C15.3453 20.5465 15.1035 20.3047 14.8063 20.3047H4.025Z" fill="#212A41"/>
<path d="M19.1188 21.5625H8.3375C7.94039 21.5625 7.61875 21.2409 7.61875 20.8438C7.61875 20.4466 7.94039 20.125 8.3375 20.125H19.1188C19.5159 20.125 19.8375 20.4466 19.8375 20.8438C19.8375 21.2409 19.5159 21.5625 19.1188 21.5625Z" fill="#E0E0E0"/>
<path d="M19.1188 21.7422H8.3375C7.84192 21.7422 7.43906 21.339 7.43906 20.8438C7.43906 20.3485 7.84192 19.9453 8.3375 19.9453H19.1188C19.6143 19.9453 20.0172 20.3485 20.0172 20.8438C20.0172 21.339 19.6143 21.7422 19.1188 21.7422ZM8.3375 20.3047C8.0403 20.3047 7.79844 20.5465 7.79844 20.8438C7.79844 21.141 8.0403 21.3828 8.3375 21.3828H19.1188C19.416 21.3828 19.6578 21.141 19.6578 20.8438C19.6578 20.5465 19.416 20.3047 19.1188 20.3047H8.3375Z" fill="#212A41"/>
<path d="M16.6089 2.7061C14.2406 1.01452 11.0594 1.01452 8.69149 2.7061C5.65117 4.8778 4.92811 9.09327 7.0707 12.1541L12.65 20.125L18.2297 12.1541C20.3723 9.09327 19.6492 4.8778 16.6089 2.7061ZM12.65 10.8858C11.159 10.8858 9.95038 9.67725 9.95038 8.1862C9.95038 6.69516 11.159 5.48658 12.65 5.48658C14.141 5.48658 15.3496 6.69516 15.3496 8.1862C15.3496 9.67725 14.141 10.8858 12.65 10.8858Z" fill="#B56910"/>
<path d="M12.65 20.3047C12.5914 20.3047 12.5364 20.2759 12.503 20.2281L6.92336 12.2572C4.73369 9.1292 5.48011 4.77933 8.58691 2.56019C11.0174 0.824048 14.2834 0.824048 16.7135 2.56019C19.8203 4.77933 20.5667 9.1292 18.377 12.2572L12.7973 20.2281C12.7639 20.2759 12.7086 20.3047 12.65 20.3047ZM12.65 1.61719C11.2991 1.61719 9.94822 2.02903 8.7957 2.85236C5.84847 4.95722 5.14014 9.08392 7.21697 12.0509L12.65 19.8116L18.0827 12.0509C20.1595 9.08392 19.4515 4.95722 16.5039 2.85236C15.3518 2.02903 14.0009 1.61719 12.65 1.61719ZM12.65 11.0655C11.0623 11.0655 9.77069 9.77392 9.77069 8.1862C9.77069 6.59849 11.0623 5.30689 12.65 5.30689C14.2377 5.30689 15.5293 6.59849 15.5293 8.1862C15.5293 9.77392 14.2377 11.0655 12.65 11.0655ZM12.65 5.66663C11.2607 5.66663 10.1301 6.79722 10.1301 8.18656C10.1301 9.57591 11.2607 10.7065 12.65 10.7065C14.0393 10.7065 15.1699 9.57591 15.1699 8.18656C15.1699 6.79722 14.0393 5.66663 12.65 5.66663Z" fill="#212A41"/>
<path d="M12.65 19.0512C12.6141 19.0512 12.5785 19.0408 12.5469 19.0188C12.4656 18.9621 12.4459 18.8499 12.503 18.7687L17.494 11.6391C17.5508 11.5571 17.6629 11.5385 17.7441 11.5949C17.8254 11.6517 17.8451 11.7638 17.788 11.845L12.797 18.9746C12.7625 19.0246 12.7064 19.0512 12.65 19.0512Z" fill="#723B08"/>
<path d="M6.56507 8.36589C6.56435 8.36589 6.56363 8.36589 6.56291 8.36589C6.46372 8.36481 6.3843 8.28323 6.38538 8.18405C6.40982 6.18269 7.38911 4.29884 9.0045 3.14489C10.0744 2.38086 11.3351 1.97656 12.65 1.97656C12.7492 1.97656 12.8297 2.05706 12.8297 2.15625C12.8297 2.25544 12.7492 2.33594 12.65 2.33594C11.4105 2.33594 10.2221 2.71688 9.21366 3.43706C7.69099 4.52453 6.76775 6.30092 6.74475 8.18836C6.74368 8.28719 6.66318 8.36589 6.56507 8.36589Z" fill="#723B08"/>
<path d="M7.07035 12.1541C4.92775 9.09327 5.65117 4.8778 8.69113 2.7061C9.56728 2.08006 10.5552 1.68727 11.5719 1.52483C9.84113 1.24775 8.027 1.64055 6.53488 2.7061C3.49456 4.8778 2.7715 9.09327 4.91409 12.1541L10.4938 20.125H12.65L7.07035 12.1541Z" fill="#723B08"/>
<path d="M12.65 20.3047H10.4937C10.4352 20.3047 10.3802 20.2759 10.3468 20.2281L4.76711 12.2572C2.57744 9.1292 3.32386 4.77933 6.43065 2.56019C7.93572 1.48566 9.7714 1.05441 11.6006 1.34766C11.6872 1.36131 11.7516 1.43642 11.7516 1.52483C11.7516 1.61324 11.6872 1.68834 11.6003 1.70236C10.5933 1.86336 9.6237 2.26119 8.7957 2.85236C5.84847 4.95758 5.1405 9.08392 7.21697 12.0513L12.7966 20.0222C12.8351 20.0772 12.8397 20.1487 12.8088 20.2084C12.7779 20.268 12.7172 20.3047 12.65 20.3047ZM10.5875 19.9453H12.305L6.92336 12.2568C4.73369 9.12884 5.48011 4.77897 8.5869 2.55983C9.15292 2.15553 9.78147 1.83749 10.4427 1.61719C9.08464 1.62474 7.76466 2.0488 6.63981 2.85236C3.69258 4.95758 2.98461 9.08392 5.06108 12.0513L10.5875 19.9453Z" fill="#212A41"/>
<path d="M11.5719 10.6605C11.9021 10.8046 12.2665 10.8858 12.65 10.8858C14.141 10.8858 15.3496 9.67725 15.3496 8.1862C15.3496 6.69515 14.141 5.48658 12.65 5.48658C12.2665 5.48658 11.9021 5.56779 11.5719 5.7119C12.526 6.12842 13.1934 7.07861 13.1934 8.1862C13.1934 9.29379 12.526 10.2443 11.5719 10.6605Z" fill="#723B08"/>
<path d="M12.65 11.0655C12.2525 11.0655 11.8655 10.9847 11.5 10.8255C11.4346 10.7967 11.3922 10.732 11.3922 10.6609C11.3922 10.5897 11.4346 10.5247 11.5 10.4963C12.4196 10.0952 13.0137 9.1885 13.0137 8.18692C13.0137 7.18534 12.4196 6.27864 11.5 5.87722C11.4346 5.84883 11.3922 5.78414 11.3922 5.71262C11.3922 5.64111 11.4346 5.57642 11.5 5.54803C11.8658 5.38883 12.2525 5.30797 12.65 5.30797C14.2377 5.30797 15.5293 6.59956 15.5293 8.18728C15.5293 9.775 14.2377 11.0655 12.65 11.0655ZM12.0211 10.6264C12.2256 10.6792 12.4362 10.7061 12.65 10.7061C14.0393 10.7061 15.1699 9.57555 15.1699 8.1862C15.1699 6.79686 14.0393 5.66626 12.65 5.66626C12.4358 5.66626 12.2256 5.69322 12.0211 5.74605C12.8538 6.26714 13.3731 7.18498 13.3731 8.1862C13.3731 9.18742 12.8541 10.1053 12.0211 10.6264Z" fill="#212A41"/>
</svg>
