<svg width="27" height="27" viewBox="0 0 27 27" fill="none" xmlns="http://www.w3.org/2000/svg">
<path d="M17.7926 0.421875C22.6447 0.421875 26.5781 4.35533 26.5781 9.20742C26.5781 14.0596 22.6447 17.9931 17.7926 17.9931C12.9405 17.9931 9.00703 14.0596 9.00703 9.20742C9.00693 4.35533 12.9404 0.421875 17.7926 0.421875ZM17.7926 15.8061C21.4368 15.8061 24.3911 12.8518 24.3911 9.20742C24.3911 5.56305 21.4368 2.60888 17.7926 2.60888C14.1483 2.60888 11.194 5.56316 11.194 9.20742C11.194 12.8517 14.1482 15.8061 17.7926 15.8061Z" fill="black"/>
<path d="M17.7926 0.421875C17.934 0.421875 18.0745 0.425883 18.2144 0.432527C13.5581 0.652746 9.85058 4.49677 9.85058 9.20742C9.85058 13.9181 13.5581 17.7622 18.2144 17.9823C18.0745 17.989 17.934 17.993 17.7926 17.993C12.9404 17.993 9.00704 14.0595 9.00704 9.20732C9.00693 4.35533 12.9404 0.421875 17.7926 0.421875Z" fill="#202020"/>
<path d="M17.7926 17.9931C17.6511 17.9931 17.5107 17.9891 17.3708 17.9824C22.027 17.7622 25.7346 13.9182 25.7346 9.20753C25.7346 4.49687 22.027 0.652746 17.3708 0.432633C17.5106 0.425883 17.651 0.421875 17.7926 0.421875C22.6447 0.421875 26.5781 4.35533 26.5781 9.20742C26.5781 14.0596 22.6447 17.9931 17.7926 17.9931Z" fill="#1A1A1A"/>
<path d="M9.45401 19.2341C9.50917 19.2341 9.56307 19.2124 9.60315 19.1723L12.5131 16.2623C12.5557 16.2197 12.5781 16.161 12.5745 16.1008C12.571 16.0406 12.5418 15.9848 12.4946 15.9475C12.2143 15.7267 11.9641 15.5053 11.7293 15.2706C11.4979 15.0392 11.2701 14.7818 11.0525 14.5054C11.0152 14.4581 10.9594 14.429 10.8993 14.4254C10.8382 14.4213 10.7802 14.4442 10.7377 14.4869L7.82768 17.3969C7.774 17.4505 7.75333 17.5289 7.77347 17.6021C7.79362 17.6753 7.85152 17.7319 7.92514 17.7505C8.2465 17.8317 8.53897 17.9972 8.77089 18.2291C9.00292 18.4611 9.16851 18.7536 9.2494 19.0749C9.26797 19.1485 9.32471 19.2065 9.3978 19.2266C9.41636 19.2316 9.43524 19.2341 9.45401 19.2341ZM12.049 16.1299L9.54461 18.6342C9.43239 18.3719 9.27123 18.1328 9.06916 17.9307C8.86718 17.7287 8.62809 17.5677 8.36568 17.4554L10.87 14.951C11.0523 15.1712 11.2403 15.3783 11.4309 15.569C11.6216 15.7597 11.8289 15.9477 12.049 16.1299ZM8.92002 18.0799H8.91897H8.92002Z" fill="#959595"/>
<path d="M17.7925 16.017C21.5473 16.017 24.602 12.9622 24.602 9.20742C24.602 5.45263 21.5472 2.39793 17.7925 2.39793C14.0378 2.39793 10.983 5.45273 10.983 9.20742C10.983 12.9622 14.0378 16.017 17.7925 16.017ZM17.7925 2.81981C21.3147 2.81981 24.1801 5.68529 24.1801 9.20742C24.1801 12.7297 21.3146 15.5951 17.7925 15.5951C14.2703 15.5951 11.4049 12.7297 11.4049 9.20742C11.4049 5.68529 14.2703 2.81981 17.7925 2.81981Z" fill="#959595"/>
<path d="M17.7925 18.204C22.7532 18.204 26.7891 14.1681 26.7891 9.20742C26.7891 4.2468 22.7532 0.210938 17.7925 0.210938C12.8318 0.210938 8.79588 4.2468 8.79588 9.20742C8.79588 14.1681 12.8318 18.204 17.7925 18.204ZM17.7925 0.632812C22.5205 0.632812 26.3672 4.47936 26.3672 9.20742C26.3672 13.9356 22.5205 17.7821 17.7925 17.7821C13.0644 17.7821 9.21776 13.9356 9.21776 9.20742C9.21776 4.47936 13.0644 0.632812 17.7925 0.632812Z" fill="#959595"/>
<path d="M24.3834 5.31626C24.4223 5.31626 24.4617 5.3054 24.497 5.28293C24.5951 5.22007 24.6237 5.08961 24.5608 4.99152C24.266 4.53126 23.9267 4.09525 23.5523 3.69542C23.4727 3.6103 23.3392 3.60609 23.2542 3.68561C23.1692 3.76524 23.1647 3.89876 23.2444 3.98377C23.6013 4.36483 23.9245 4.78038 24.2054 5.21891C24.2459 5.28188 24.3139 5.31626 24.3834 5.31626Z" fill="#959595"/>
<path d="M2.46556 26.788C3.04289 26.788 3.62023 26.5683 4.05972 26.1287L9.06917 21.1192C9.49505 20.6934 9.72961 20.1272 9.72961 19.525C9.72961 18.9228 9.49505 18.3566 9.06917 17.9308C8.64339 17.505 8.07723 17.2705 7.47501 17.2705C6.87278 17.2705 6.30663 17.5051 5.88085 17.9308L0.871292 22.9404C-0.00768453 23.8194 -0.00768453 25.2497 0.871292 26.1287C1.31078 26.5682 1.88812 26.788 2.46556 26.788ZM7.47501 17.6923C7.96459 17.6923 8.42475 17.883 8.7709 18.229C9.11705 18.5752 9.30774 19.0354 9.30774 19.5249C9.30774 20.0144 9.11705 20.4746 8.7709 20.8208L3.76145 25.8303C3.0468 26.5448 1.88421 26.5447 1.16956 25.8303C0.455113 25.1158 0.455113 23.9531 1.16956 23.2386L6.17911 18.229C6.52526 17.883 6.98553 17.6923 7.47501 17.6923ZM1.02043 25.9796H1.01937H1.02043Z" fill="#959595"/>
<path d="M15.0682 12.279C13.949 12.1064 13.015 11.6804 12.5551 11.1904C13.1412 10.8618 14.1601 10.7369 15.2795 10.9095C15.4002 10.928 15.5183 10.9502 15.6343 10.9744C15.3629 10.766 15.0923 10.53 14.83 10.2676C13.8262 9.26385 13.1975 8.14103 13.0955 7.30498C13.9316 7.40697 15.0544 8.03567 16.0582 9.03941C16.4035 9.38472 16.7031 9.74405 16.9535 10.1011C16.7824 9.4074 16.6851 8.61227 16.6851 7.76662C16.6851 5.95635 17.1307 4.37706 17.7926 3.5312C18.4544 4.37706 18.9 5.95646 18.9 7.76662C18.9 8.61227 18.8027 9.4074 18.6316 10.1011C18.882 9.74416 19.1816 9.38472 19.5269 9.03941C20.5307 8.03567 21.6535 7.40697 22.4895 7.30498C22.3875 8.14103 21.7588 9.26385 20.7551 10.2676C20.4927 10.53 20.2222 10.766 19.9508 10.9744C20.0668 10.9502 20.1849 10.928 20.3056 10.9095C21.4248 10.7369 22.4438 10.8618 23.0298 11.1904C22.5699 11.6804 21.636 12.1064 20.5167 12.279C20.0052 12.3579 19.5153 12.3739 19.0774 12.3375C19.1875 12.4033 19.2979 12.4764 19.4072 12.5565C19.9863 12.9809 20.3872 13.4938 20.5027 13.9038C20.0769 13.9173 19.4671 13.6895 18.8879 13.2651C18.3535 12.8734 17.9715 12.4067 17.8249 12.0147C17.8162 12.01 17.8069 12.0058 17.7985 12.0011C17.7965 12.0013 17.7945 12.0018 17.7925 12.002C17.7905 12.0018 17.7885 12.0013 17.7865 12.0011C17.778 12.0057 17.7688 12.01 17.7601 12.0147C17.6135 12.4067 17.2315 12.8735 16.6971 13.2651C16.118 13.6895 15.5081 13.9172 15.0823 13.9038C15.1977 13.4938 15.5985 12.9809 16.1778 12.5565C16.2871 12.4763 16.3976 12.4033 16.5076 12.3375C16.0696 12.374 15.5797 12.3579 15.0682 12.279Z" fill="#7BAC51"/>
<path d="M17.7925 14.5902C17.9089 14.5902 18.0034 14.4957 18.0034 14.3793V11.8624C18.0034 11.7459 17.9089 11.6514 17.7925 11.6514C17.676 11.6514 17.5815 11.7459 17.5815 11.8624V14.3793C17.5815 14.4957 17.676 14.5902 17.7925 14.5902Z" fill="#959595"/>
<path d="M20.4664 14.1154C20.4809 14.1154 20.4952 14.1152 20.5095 14.1148C20.5742 14.1127 20.6346 14.0809 20.6729 14.0286C20.7112 13.9763 20.7235 13.9092 20.7058 13.8468C20.5898 13.4348 20.2427 12.968 19.7583 12.5634C20.0169 12.5543 20.2811 12.529 20.5491 12.4876C21.6859 12.3123 22.6708 11.8814 23.1838 11.335C23.2282 11.2877 23.2484 11.2226 23.2386 11.1585C23.2288 11.0944 23.1898 11.0384 23.1333 11.0066C22.554 10.6819 21.6485 10.5552 20.6595 10.6525C20.7425 10.5758 20.8243 10.4972 20.9044 10.417C21.9159 9.4056 22.5867 8.25188 22.6991 7.33072C22.7069 7.26627 22.6847 7.20183 22.6389 7.15606C22.593 7.11029 22.5287 7.08835 22.4642 7.09584C21.5432 7.20827 20.3894 7.87915 19.378 8.89049C19.248 9.02043 19.123 9.15364 19.0034 9.28969C19.0743 8.79926 19.111 8.28447 19.111 7.76683C19.111 5.9554 18.6803 4.32349 17.9587 3.40137C17.9187 3.35033 17.8574 3.32037 17.7926 3.32037C17.7277 3.32037 17.6664 3.35022 17.6265 3.40137C16.9048 4.32349 16.4741 5.9554 16.4741 7.76683C16.4741 8.28447 16.5109 8.79916 16.5818 9.28959C16.4622 9.15374 16.3373 9.02054 16.2073 8.89049C15.1958 7.87915 14.0422 7.20827 13.1209 7.09584C13.0564 7.08793 12.9921 7.11029 12.9463 7.15606C12.9003 7.20194 12.8782 7.26638 12.8861 7.33072C12.9985 8.25199 13.6695 9.40571 14.6808 10.4169C14.761 10.4971 14.8427 10.5757 14.9257 10.6523C13.9364 10.5554 13.0311 10.6819 12.452 11.0065C12.3954 11.0383 12.3566 11.0943 12.3467 11.1584C12.3368 11.2225 12.357 11.2876 12.4014 11.3349C12.9144 11.8814 13.8994 12.3123 15.0362 12.4875C15.304 12.5288 15.5683 12.5542 15.827 12.5633C15.3423 12.9681 14.9952 13.4348 14.8793 13.8467C14.8617 13.9091 14.8738 13.9762 14.9122 14.0285C14.9506 14.0808 15.0109 14.1126 15.0757 14.1147C15.5694 14.1306 16.2203 13.8761 16.822 13.4354C17.2407 13.1285 17.5796 12.7729 17.7927 12.423C18.0058 12.7728 18.3446 13.1284 18.7634 13.4354C19.3475 13.8636 19.98 14.1154 20.4664 14.1154ZM19.0774 12.1266C18.9865 12.1266 18.9049 12.1852 18.8767 12.273C18.8467 12.3664 18.885 12.4682 18.9693 12.5186C19.0753 12.5819 19.1807 12.6519 19.2826 12.7267C19.6714 13.0115 19.9872 13.3474 20.1667 13.6576C19.8168 13.5798 19.4014 13.3799 19.0129 13.0951C18.5311 12.742 18.1609 12.3105 18.0226 11.941C18.0046 11.8927 17.9693 11.8526 17.9238 11.8284L17.9084 11.8205C17.8697 11.7988 17.8189 11.7866 17.7745 11.7916C17.7424 11.7937 17.7101 11.8022 17.6833 11.8173L17.6614 11.8284C17.6158 11.8526 17.5806 11.8926 17.5626 11.9409C17.4242 12.3106 17.054 12.7421 16.5723 13.0951C16.1835 13.3799 15.7682 13.5798 15.4184 13.6576C15.598 13.3474 15.9137 13.0115 16.3024 12.7267C16.4046 12.6519 16.5101 12.5818 16.6159 12.5186C16.7001 12.4682 16.7384 12.3664 16.7085 12.273C16.6784 12.1795 16.5869 12.1195 16.4901 12.1273C16.0561 12.1635 15.5755 12.1439 15.1004 12.0706C14.2208 11.935 13.4247 11.6294 12.9342 11.249C13.5165 11.0339 14.3675 10.9824 15.2473 11.118C15.3556 11.1347 15.4682 11.1553 15.5911 11.181C15.6873 11.201 15.7849 11.152 15.826 11.0625C15.8671 10.9731 15.8409 10.8671 15.7627 10.8072C15.491 10.5986 15.2275 10.3668 14.9791 10.1186C14.1526 9.29222 13.5548 8.34406 13.3597 7.56939C14.1344 7.76451 15.0826 8.36231 15.909 9.18865C16.2357 9.5154 16.529 9.86323 16.7807 10.2222C16.839 10.3054 16.9484 10.3351 17.0407 10.2932C17.1332 10.2513 17.1827 10.1493 17.1582 10.0506C16.9867 9.35498 16.896 8.56523 16.896 7.76672C16.896 6.22024 17.2351 4.775 17.7926 3.89739C18.35 4.77479 18.6891 6.22003 18.6891 7.76662C18.6891 8.56512 18.5984 9.35498 18.4269 10.0505C18.4025 10.1492 18.4519 10.251 18.5443 10.2931C18.637 10.335 18.746 10.3054 18.8043 10.2222C19.0565 9.8627 19.3498 9.51497 19.6761 9.18865C20.5027 8.3622 21.4508 7.7644 22.2253 7.56939C22.0303 8.34395 21.4325 9.29201 20.6061 10.1186C20.3573 10.3673 20.0936 10.599 19.8223 10.8072C19.7443 10.8671 19.718 10.9731 19.759 11.0625C19.8001 11.152 19.8979 11.2011 19.9939 11.181C20.1169 11.1552 20.2293 11.1347 20.3378 11.118C21.2175 10.9823 22.0686 11.034 22.651 11.249C22.1605 11.6294 21.3644 11.935 20.4848 12.0706C20.0097 12.1439 19.5292 12.1635 19.095 12.1273C19.0891 12.1268 19.0833 12.1266 19.0774 12.1266Z" fill="#959595"/>
</svg>
